<?xml version="1.0" encoding="utf-8"?>
<!-- Generator: Adobe Illustrator 15.0.0, SVG Export Plug-In . SVG Version: 6.00 Build 0)  -->
<!DOCTYPE svg PUBLIC "-//W3C//DTD SVG 1.1//EN" "http://www.w3.org/Graphics/SVG/1.1/DTD/svg11.dtd">
<svg version="1.1" id="Layer_1" xmlns="http://www.w3.org/2000/svg" xmlns:xlink="http://www.w3.org/1999/xlink" x="0px" y="0px"
	 width="60px" height="60px" viewBox="0 0 60 60" enable-background="new 0 0 60 60" xml:space="preserve">
<g>
	<g>
		<defs>
			<rect id="SVGID_1_" width="60" height="60"/>
		</defs>
		<clipPath id="SVGID_2_">
			<use xlink:href="#SVGID_1_"  overflow="visible"/>
		</clipPath>
		<path clip-path="url(#SVGID_2_)" fill="#A7A9AC" d="M53.607,56.781c0-0.57-0.503-1.073-1.072-1.073H7.465
			c-0.57,0-1.073,0.503-1.073,1.073v2.146c0,0.57,0.503,1.073,1.073,1.073h45.07c0.569,0,1.072-0.503,1.072-1.073V56.781
			L53.607,56.781z M45.023,21.369c0-11.334-7.914-17.203-17.169-21.461l0.033,0.033l-0.101-0.033C28.826,1.953,30,5.072,30,7.419
			c0,8.551-15.023,9.691-15.023,22.535c0,11.334,7.914,17.203,17.169,21.461l-0.034-0.033l0.135,0.033
			C31.174,49.37,30,46.251,30,43.903C30,35.353,45.023,34.213,45.023,21.369L45.023,21.369z"/>
	</g>
</g>
</svg>
