<?xml version="1.0" encoding="utf-8"?>
<!-- Generator: Adobe Illustrator 15.0.0, SVG Export Plug-In . SVG Version: 6.00 Build 0)  -->
<!DOCTYPE svg PUBLIC "-//W3C//DTD SVG 1.1//EN" "http://www.w3.org/Graphics/SVG/1.1/DTD/svg11.dtd">
<svg version="1.1" id="Layer_1" xmlns="http://www.w3.org/2000/svg" xmlns:xlink="http://www.w3.org/1999/xlink" x="0px" y="0px"
	 width="60px" height="60px" viewBox="0 0 60 60" enable-background="new 0 0 60 60" xml:space="preserve">
<g>
	<g>
		<defs>
			<rect id="SVGID_1_" width="60" height="60"/>
		</defs>
		<clipPath id="SVGID_2_">
			<use xlink:href="#SVGID_1_"  overflow="visible"/>
		</clipPath>
		<path clip-path="url(#SVGID_2_)" fill="#A7A9AC" d="M30.78,12.52c-0.935-2.67-3.854-4.078-6.525-3.153
			c-2.675,0.94-4.083,3.865-3.148,6.536l0.278,0.794H14.51l-4.886-7.85C8.128,6.447,4.972,5.709,2.566,7.2
			c-2.403,1.501-3.138,4.66-1.642,7.065l4.299,6.904c-0.839,1.387-1.348,2.992-1.348,4.732c0,5.086,4.122,9.206,9.205,9.206h12.65
			c5.083,0,9.206-4.119,9.206-9.206C34.937,25.035,30.78,12.52,30.78,12.52L30.78,12.52z"/>
		<path clip-path="url(#SVGID_2_)" fill="#A7A9AC" d="M58.633,24.136c0,6.062-4.911,10.972-10.969,10.972
			s-10.969-4.909-10.969-10.972c0-6.058,4.911-10.967,10.969-10.967S58.633,18.078,58.633,24.136L58.633,24.136z"/>
		<path clip-path="url(#SVGID_2_)" fill="#A7A9AC" d="M60.146,49.248c0,2.39-1.936,4.322-4.322,4.322H4.177
			c-2.387,0-4.322-1.933-4.322-4.322l0,0c0-2.39,1.936-4.322,4.322-4.322h51.646C58.21,44.926,60.146,46.858,60.146,49.248
			L60.146,49.248L60.146,49.248z"/>
	</g>
</g>
</svg>
