<?xml version="1.0" encoding="utf-8"?>
<!-- Generator: Adobe Illustrator 15.0.0, SVG Export Plug-In . SVG Version: 6.00 Build 0)  -->
<!DOCTYPE svg PUBLIC "-//W3C//DTD SVG 1.1//EN" "http://www.w3.org/Graphics/SVG/1.1/DTD/svg11.dtd">
<svg version="1.1" id="Layer_1" xmlns="http://www.w3.org/2000/svg" xmlns:xlink="http://www.w3.org/1999/xlink" x="0px" y="0px"
	 width="60px" height="60px" viewBox="0 0 60 60" enable-background="new 0 0 60 60" xml:space="preserve">
<g>
	<path fill="#A7A9AC" d="M60,42.436c0,0-0.001-0.002-0.001-0.006V29.038c0-1.96-1.589-3.549-3.549-3.549
		c-1.961,0-3.55,1.589-3.55,3.549v9.851H7.099V12.549C7.099,10.589,5.51,9,3.55,9C1.589,9,0,10.589,0,12.549v35.039
		c0,1.961,1.589,3.549,3.55,3.549c1.96,0,3.549-1.588,3.549-3.549v-1.602H52.9v1.602c0,1.961,1.589,3.549,3.55,3.549
		c1.96,0,3.549-1.588,3.549-3.549v-5.146C59.999,42.439,60,42.438,60,42.436L60,42.436z"/>
	<path fill="#A7A9AC" d="M14.936,35.188c3.078,0,5.572-2.494,5.572-5.572c0-3.078-2.494-5.572-5.572-5.572s-5.572,2.494-5.572,5.572
		C9.364,32.693,11.858,35.188,14.936,35.188L14.936,35.188z"/>
	<path fill="#A7A9AC" d="M43.965,27.1h-14.56c-4.02,0-7.279,3.259-7.279,7.279h29.119C51.244,30.359,47.984,27.1,43.965,27.1
		L43.965,27.1z"/>
</g>
</svg>
