<?xml version="1.0" encoding="utf-8"?>
<!-- Generator: Adobe Illustrator 15.0.0, SVG Export Plug-In . SVG Version: 6.00 Build 0)  -->
<!DOCTYPE svg PUBLIC "-//W3C//DTD SVG 1.1//EN" "http://www.w3.org/Graphics/SVG/1.1/DTD/svg11.dtd">
<svg version="1.1" id="Layer_1" xmlns="http://www.w3.org/2000/svg" xmlns:xlink="http://www.w3.org/1999/xlink" x="0px" y="0px"
	 width="60px" height="60px" viewBox="0 0 60 60" enable-background="new 0 0 60 60" xml:space="preserve">
<g>
	<g>
		<g>
			<defs>
				<rect id="SVGID_1_" width="60" height="60"/>
			</defs>
			<clipPath id="SVGID_2_">
				<use xlink:href="#SVGID_1_"  overflow="visible"/>
			</clipPath>
			<path clip-path="url(#SVGID_2_)" fill="#A7A9AC" d="M47,26.91l-10.393-4.025c-0.752-2.914-3.223-5.201-6.392-5.529
				c-1.153-0.119-2.261,0.058-3.281,0.428c-0.023,0.011-0.047,0.004-0.07,0.015L12.73,23.637c-1.432,0.597-2.108,2.251-1.518,3.687
				c0.589,1.428,2.223,2.097,3.654,1.493l7.011-2.885l-0.815,7.867c-0.322,3.126,1.353,5.98,3.985,7.338l-7.05,13.68
				c-0.896,1.742-0.212,3.89,1.532,4.787c1.748,0.903,3.892,0.213,4.788-1.527l7.621-14.784c0.021-0.036,0.015-0.079,0.033-0.118
				l4.651,3.896l3.06,10.369c0.562,1.881,2.539,2.953,4.422,2.399c1.889-0.562,2.957-2.547,2.398-4.417L43.18,44.18
				c-0.168-0.576-0.5-1.039-0.892-1.438c-0.16-0.214-0.286-0.446-0.499-0.622l-6.307-5.273c0.158-0.486,0.271-0.992,0.324-1.521
				l0.672-6.475l8.445,3.285c1.449,0.561,3.079-0.154,3.654-1.594C49.15,29.097,48.432,27.471,47,26.91L47,26.91z"/>
		</g>
	</g>
	<path fill="#A7A9AC" d="M44.564,8c0,4.417-3.58,8-8,8c-4.418,0-8-3.583-8-8s3.582-8,8-8S44.564,3.583,44.564,8L44.564,8z"/>
</g>
</svg>
