<?xml version="1.0" encoding="utf-8"?>
<!-- Generator: Adobe Illustrator 15.0.0, SVG Export Plug-In . SVG Version: 6.00 Build 0)  -->
<!DOCTYPE svg PUBLIC "-//W3C//DTD SVG 1.1//EN" "http://www.w3.org/Graphics/SVG/1.1/DTD/svg11.dtd">
<svg version="1.1" id="Layer_1" xmlns="http://www.w3.org/2000/svg" xmlns:xlink="http://www.w3.org/1999/xlink" x="0px" y="0px"
	 width="60px" height="60px" viewBox="0 0 60 60" enable-background="new 0 0 60 60" xml:space="preserve">
<g>
	<path fill="#A7A9AC" d="M51.182,29.57V45c0,8.281-7.566,15-16.863,15c-9.297,0-16.864-6.719-16.864-15v-5.156
		C9.286,38.789,3,32.539,3,25V5c0-1.368,1.091-2.5,2.409-2.5c0.226,0,0.414,0.039,0.603,0.078C6.839,1.055,8.421,0,10.227,0
		c2.673,0,4.818,2.227,4.818,5s-2.146,5-4.818,5c-0.865,0-1.694-0.273-2.409-0.703V25c0,5.508,5.42,10,12.045,10
		c6.625,0,12.045-4.492,12.045-10V9.297C31.194,9.727,30.365,10,29.5,10c-2.673,0-4.818-2.227-4.818-5s2.146-5,4.818-5
		c1.807,0,3.388,1.055,4.216,2.578C33.904,2.539,34.093,2.5,34.318,2.5c1.317,0,2.409,1.132,2.409,2.5v20
		c0,7.539-6.286,13.789-14.455,14.844V45c0,5.508,5.421,10,12.046,10c6.624,0,12.045-4.492,12.045-10V29.57
		c-2.822-1.055-4.818-3.789-4.818-7.07c0-4.14,3.238-7.5,7.228-7.5C52.763,15,56,18.36,56,22.5
		C56,25.781,54.005,28.516,51.182,29.57L51.182,29.57z M48.772,20c-1.317,0-2.409,1.132-2.409,2.5s1.092,2.5,2.409,2.5
		c1.318,0,2.409-1.132,2.409-2.5S50.091,20,48.772,20L48.772,20z"/>
</g>
</svg>
