<?xml version="1.0" encoding="utf-8"?>
<!-- Generator: Adobe Illustrator 15.0.0, SVG Export Plug-In . SVG Version: 6.00 Build 0)  -->
<!DOCTYPE svg PUBLIC "-//W3C//DTD SVG 1.1//EN" "http://www.w3.org/Graphics/SVG/1.1/DTD/svg11.dtd">
<svg version="1.1" id="Layer_1" xmlns="http://www.w3.org/2000/svg" xmlns:xlink="http://www.w3.org/1999/xlink" x="0px" y="0px"
	 width="60px" height="60px" viewBox="0 0 60 60" enable-background="new 0 0 60 60" xml:space="preserve">
<g>
	<path fill="#A7A9AC" d="M56.4,10c-1.989,0-3.601,1.611-3.601,3.6v0.515H7.2V13.6c0-1.989-1.613-3.6-3.6-3.6
		C1.611,10,0,11.611,0,13.6v34.629c0,1.988,1.611,3.6,3.6,3.6c1.987,0,3.6-1.611,3.6-3.6v-4.912h45.6v4.912
		c0,1.988,1.611,3.6,3.601,3.6c1.987,0,3.6-1.611,3.6-3.6V13.6C60,11.611,58.388,10,56.4,10L56.4,10z M20.43,18.571h5.465v15.316
		H20.43V18.571L20.43,18.571z M19.058,33.888h-5.467V18.571h5.467V33.888L19.058,33.888z M27.267,18.571h5.467v15.316h-5.467V18.571
		L27.267,18.571z M34.105,18.571h5.465v15.316h-5.465V18.571L34.105,18.571z M40.942,18.571h5.467v15.316h-5.467V18.571
		L40.942,18.571z M7.2,18.571h5.02v15.316H7.2V18.571L7.2,18.571z M52.8,33.888h-5.02V18.571h5.02V33.888L52.8,33.888z"/>
</g>
</svg>
