<?xml version="1.0" encoding="utf-8"?>
<!-- Generator: Adobe Illustrator 15.0.0, SVG Export Plug-In . SVG Version: 6.00 Build 0)  -->
<!DOCTYPE svg PUBLIC "-//W3C//DTD SVG 1.1//EN" "http://www.w3.org/Graphics/SVG/1.1/DTD/svg11.dtd">
<svg version="1.1" id="Layer_1" xmlns="http://www.w3.org/2000/svg" xmlns:xlink="http://www.w3.org/1999/xlink" x="0px" y="0px"
	 width="60px" height="60px" viewBox="0 0 60 60" enable-background="new 0 0 60 60" xml:space="preserve">
<g>
	<g>
		<defs>
			<rect id="SVGID_1_" width="60" height="60"/>
		</defs>
		<clipPath id="SVGID_2_">
			<use xlink:href="#SVGID_1_"  overflow="visible"/>
		</clipPath>
		<path clip-path="url(#SVGID_2_)" fill="#A7A9AC" d="M17.496,47.518c0-1.368-1.133-2.501-2.501-2.501s-2.501,1.133-2.501,2.501
			c0,1.367,1.133,2.501,2.501,2.501S17.496,48.885,17.496,47.518L17.496,47.518z M57.51,49.901c0-7.776-1.562-20.047-10.863-22.079
			c1.134,2.657,0.86,5.705,0.86,8.558c3.087,1.758,5.001,5.079,5.001,8.636v3.478c0.782,0.703,1.251,1.72,1.251,2.774
			c0,2.071-1.681,3.751-3.752,3.751c-2.07,0-3.751-1.68-3.751-3.751c0-1.055,0.469-2.071,1.251-2.774v-3.478
			c0-2.735-2.267-5.002-5.002-5.002s-5.002,2.267-5.002,5.002v3.478c0.781,0.703,1.25,1.72,1.25,2.774
			c0,2.071-1.68,3.751-3.751,3.751s-3.752-1.68-3.752-3.751c0-1.055,0.47-2.071,1.251-2.774v-3.478
			c0-5.51,4.494-10.004,10.004-10.004v-2.501c0-1.289-0.117-2.579-0.978-3.634c-3.282,2.579-7.346,4.063-11.527,4.063
			c-4.181,0-8.245-1.484-11.527-4.063c-0.86,1.055-0.977,2.345-0.977,3.634v7.933c2.97,1.055,5.001,3.908,5.001,7.073
			c0,4.142-3.36,7.502-7.502,7.502s-7.503-3.36-7.503-7.502c0-3.165,1.993-6.019,5.002-7.073v-7.933c0-1.602,0.234-3.204,0.86-4.689
			C4.053,29.854,2.49,42.125,2.49,49.901c0,6.369,4.181,10.12,10.433,10.12h34.153C53.329,60.021,57.51,56.271,57.51,49.901
			L57.51,49.901z M45.006,15.005C45.006,6.721,38.284,0,30,0S14.995,6.721,14.995,15.005S21.716,30.011,30,30.011
			S45.006,23.29,45.006,15.005L45.006,15.005z"/>
	</g>
</g>
</svg>
