<?xml version="1.0" encoding="utf-8"?>
<!-- Generator: Adobe Illustrator 15.0.0, SVG Export Plug-In . SVG Version: 6.00 Build 0)  -->
<!DOCTYPE svg PUBLIC "-//W3C//DTD SVG 1.1//EN" "http://www.w3.org/Graphics/SVG/1.1/DTD/svg11.dtd">
<svg version="1.1" id="Layer_1" xmlns="http://www.w3.org/2000/svg" xmlns:xlink="http://www.w3.org/1999/xlink" x="0px" y="0px"
	 width="120px" height="60px" viewBox="0 0 120 60" enable-background="new 0 0 120 60" xml:space="preserve">
<g>
	<path fill="#0037FF" d="M93.109,14.407c-0.857-2.445-3.531-3.735-5.977-2.888c-2.449,0.861-3.738,3.54-2.883,5.985l0.254,0.728
		h-6.295l-4.475-7.189c-1.371-2.197-4.26-2.873-6.463-1.508c-2.201,1.375-2.873,4.268-1.504,6.47l3.938,6.323
		c-0.77,1.27-1.234,2.739-1.234,4.334c0,4.657,3.773,8.43,8.43,8.43h11.584c4.656,0,8.43-3.772,8.43-8.43
		C96.914,25.868,93.109,14.407,93.109,14.407"/>
	<path fill="#0037FF" d="M118.615,25.044c0,5.553-4.498,10.049-10.045,10.049s-10.045-4.496-10.045-10.049
		c0-5.547,4.498-10.042,10.045-10.042S118.615,19.497,118.615,25.044"/>
	<path fill="#0037FF" d="M120,48.042c0,2.188-1.771,3.958-3.957,3.958H68.746c-2.186,0-3.959-1.771-3.959-3.958
		c0-2.188,1.773-3.958,3.959-3.958h47.297C118.229,44.084,120,45.854,120,48.042"/>
	<path fill="#FF55AB" d="M28.322,14.407c-0.856-2.445-3.53-3.735-5.976-2.888c-2.45,0.861-3.739,3.54-2.883,5.985l0.255,0.728
		h-6.296l-4.475-7.189c-1.37-2.197-4.26-2.873-6.463-1.508c-2.2,1.375-2.873,4.268-1.503,6.47l3.937,6.323
		c-0.769,1.27-1.235,2.739-1.235,4.334c0,4.657,3.775,8.43,8.43,8.43h11.585c4.655,0,8.43-3.772,8.43-8.43
		C32.127,25.868,28.322,14.407,28.322,14.407"/>
	<path fill="#FF55AB" d="M53.829,25.044c0,5.553-4.498,10.049-10.045,10.049c-5.548,0-10.046-4.496-10.046-10.049
		c0-5.547,4.498-10.042,10.046-10.042C49.331,15.001,53.829,19.497,53.829,25.044"/>
	<path fill="#FF55AB" d="M55.213,48.042c0,2.188-1.772,3.958-3.958,3.958H3.959C1.773,52,0,50.229,0,48.042
		c0-2.188,1.773-3.958,3.959-3.958h47.296C53.441,44.084,55.213,45.854,55.213,48.042"/>
</g>
</svg>
