<?xml version="1.0" encoding="utf-8"?>
<!-- Generator: Adobe Illustrator 15.0.0, SVG Export Plug-In . SVG Version: 6.00 Build 0)  -->
<!DOCTYPE svg PUBLIC "-//W3C//DTD SVG 1.1//EN" "http://www.w3.org/Graphics/SVG/1.1/DTD/svg11.dtd">
<svg version="1.1" id="Layer_1" xmlns="http://www.w3.org/2000/svg" xmlns:xlink="http://www.w3.org/1999/xlink" x="0px" y="0px"
	 width="60px" height="60px" viewBox="0 0 60 60" enable-background="new 0 0 60 60" xml:space="preserve">
<g>
	<path fill="#A7A9AC" d="M14.376,54.931h-4.237v-5.069H5.069v-4.237l3.604-3.604l9.307,9.307L14.376,54.931L14.376,54.931z
		 M35.089,18.178c0,0.238-0.079,0.475-0.277,0.673L13.347,40.316c-0.198,0.198-0.436,0.277-0.673,0.277
		c-0.515,0-0.872-0.356-0.872-0.871c0-0.237,0.08-0.476,0.277-0.673l21.466-21.466c0.197-0.198,0.436-0.277,0.673-0.277
		C34.732,17.307,35.089,17.664,35.089,18.178L35.089,18.178z M32.95,10.574L0,43.524V60h16.475l32.951-32.951L32.95,10.574
		L32.95,10.574z M60,14.376c0-1.346-0.555-2.653-1.465-3.604l-9.308-9.268C48.277,0.554,46.971,0,45.624,0s-2.653,0.554-3.564,1.505
		L35.485,8.04L51.96,24.515l6.575-6.574C59.445,17.03,60,15.723,60,14.376L60,14.376z"/>
</g>
</svg>
