<?xml version="1.0" encoding="utf-8"?>
<!-- Generator: Adobe Illustrator 15.0.0, SVG Export Plug-In . SVG Version: 6.00 Build 0)  -->
<!DOCTYPE svg PUBLIC "-//W3C//DTD SVG 1.1//EN" "http://www.w3.org/Graphics/SVG/1.1/DTD/svg11.dtd">
<svg version="1.1" id="Layer_1" xmlns="http://www.w3.org/2000/svg" xmlns:xlink="http://www.w3.org/1999/xlink" x="0px" y="0px"
	 width="60px" height="60px" viewBox="0 0 60 60" enable-background="new 0 0 60 60" xml:space="preserve">
<g>
	<path fill="#A7A9AC" d="M53.152,12.723L42.705,2.277C41.467,1.038,38.988,0,37.215,0h-30C5.44,0,4,1.44,4,3.214v53.572
		C4,58.561,5.44,60,7.214,60h45c1.773,0,3.213-1.439,3.213-3.214V18.214C55.428,16.439,54.391,13.962,53.152,12.723L53.152,12.723z
		 M38.285,4.554c0.57,0.201,1.139,0.502,1.373,0.736l10.48,10.48c0.234,0.234,0.535,0.804,0.736,1.373h-12.59V4.554L38.285,4.554z
		 M51.143,55.714H8.286V4.286H34v13.929c0,1.774,1.439,3.214,3.215,3.214h13.928V55.714L51.143,55.714z"/>
	<path fill="#A7A9AC" d="M23.986,42.749c6.661,0,12.061-5.399,12.061-12.06c0-6.661-5.4-12.061-12.061-12.061
		s-12.061,5.399-12.061,12.061C11.925,37.35,17.325,42.749,23.986,42.749L23.986,42.749z"/>
	<path fill="#A7A9AC" d="M39.965,53.604c4.164,0,7.539-3.375,7.539-7.537c0-4.163-3.375-7.538-7.539-7.538
		c-4.162,0-7.537,3.375-7.537,7.538C32.428,50.229,35.803,53.604,39.965,53.604L39.965,53.604z"/>
</g>
</svg>
