<?xml version="1.0" encoding="utf-8"?>
<!-- Generator: Adobe Illustrator 15.0.0, SVG Export Plug-In . SVG Version: 6.00 Build 0)  -->
<!DOCTYPE svg PUBLIC "-//W3C//DTD SVG 1.1//EN" "http://www.w3.org/Graphics/SVG/1.1/DTD/svg11.dtd">
<svg version="1.1" id="Layer_1" xmlns="http://www.w3.org/2000/svg" xmlns:xlink="http://www.w3.org/1999/xlink" x="0px" y="0px"
	 width="60px" height="60px" viewBox="0 0 60 60" enable-background="new 0 0 60 60" xml:space="preserve">
<g>
	<g>
		<defs>
			<rect id="SVGID_1_" width="60" height="60"/>
		</defs>
		<clipPath id="SVGID_2_">
			<use xlink:href="#SVGID_1_"  overflow="visible"/>
		</clipPath>
		<path clip-path="url(#SVGID_2_)" fill="#A7A9AC" d="M51.343,33.627c0-0.075,0-0.149-0.037-0.224l-21.36-17.607L8.586,33.403
			c0,0.074-0.038,0.148-0.038,0.224v17.83c0,1.301,1.078,2.378,2.377,2.378h14.265V39.57h9.51v14.265h14.265
			c1.3,0,2.377-1.077,2.377-2.378V33.627L51.343,33.627z M59.627,31.063c0.408-0.483,0.334-1.263-0.148-1.672l-8.136-6.761V7.475
			c0-0.668-0.52-1.188-1.188-1.188h-7.133c-0.668,0-1.188,0.52-1.188,1.188v7.244L32.77,7.141c-1.561-1.3-4.086-1.3-5.646,0
			L0.414,29.392c-0.483,0.409-0.558,1.188-0.149,1.672l2.303,2.749c0.186,0.223,0.483,0.371,0.78,0.408
			c0.334,0.037,0.631-0.074,0.892-0.26l25.706-21.434l25.707,21.434c0.223,0.186,0.482,0.26,0.779,0.26c0.037,0,0.074,0,0.111,0
			c0.298-0.037,0.595-0.186,0.78-0.408L59.627,31.063L59.627,31.063z"/>
	</g>
</g>
</svg>
