<?xml version="1.0" encoding="utf-8"?>
<!-- Generator: Adobe Illustrator 15.0.0, SVG Export Plug-In . SVG Version: 6.00 Build 0)  -->
<!DOCTYPE svg PUBLIC "-//W3C//DTD SVG 1.1//EN" "http://www.w3.org/Graphics/SVG/1.1/DTD/svg11.dtd">
<svg version="1.1" id="Layer_1" xmlns="http://www.w3.org/2000/svg" xmlns:xlink="http://www.w3.org/1999/xlink" x="0px" y="0px"
	 width="60px" height="60px" viewBox="0 0 60 60" enable-background="new 0 0 60 60" xml:space="preserve">
<g>
	<path fill="#A7A9AC" d="M59.953,34.291c0-1.437-1.629-1.787-2.777-1.787H22.462c-2.808,0-6.573,1.723-8.423,3.893L3.318,49.031
		c-0.511,0.574-0.989,1.34-0.989,2.106c0,1.436,1.627,1.786,2.776,1.786h34.713c2.809,0,6.574-1.723,8.424-3.893l10.721-12.635
		C59.473,35.822,59.953,35.057,59.953,34.291L59.953,34.291z M49.008,23.315c0-3.924-3.223-7.147-7.146-7.147H24.504v-1.021
		c0-3.925-3.222-7.147-7.147-7.147H7.147C3.223,8,0,11.222,0,15.147v30.63c0,0.255,0.032,0.542,0.032,0.798l0.16-0.192
		l10.752-12.635c2.584-3.062,7.53-5.328,11.518-5.328h26.546V23.315L49.008,23.315z"/>
</g>
</svg>
