<?xml version="1.0" encoding="utf-8"?>
<!-- Generator: Adobe Illustrator 15.0.0, SVG Export Plug-In . SVG Version: 6.00 Build 0)  -->
<!DOCTYPE svg PUBLIC "-//W3C//DTD SVG 1.1//EN" "http://www.w3.org/Graphics/SVG/1.1/DTD/svg11.dtd">
<svg version="1.1" id="Layer_1" xmlns="http://www.w3.org/2000/svg" xmlns:xlink="http://www.w3.org/1999/xlink" x="0px" y="0px"
	 width="60px" height="60px" viewBox="0 0 60 60" enable-background="new 0 0 60 60" xml:space="preserve">
<g>
	<path fill="#A7A9AC" d="M50,30c0,10.673-7.972,19.472-18.223,20.625v4.76h9.111c1.246,0,2.278,1.045,2.278,2.308
		S42.135,60,40.889,60H18.111c-1.246,0-2.278-1.045-2.278-2.308s1.032-2.308,2.278-2.308h9.111v-4.76C16.972,49.472,9,40.673,9,30
		v-4.616c0-1.262,1.032-2.307,2.278-2.307c1.246,0,2.278,1.045,2.278,2.307V30c0,8.906,7.154,16.154,15.944,16.154
		c8.791,0,15.944-7.248,15.944-16.154v-4.616c0-1.262,1.032-2.307,2.278-2.307c1.245,0,2.277,1.045,2.277,2.307V30L50,30z
		 M40.889,30c0,6.346-5.125,11.538-11.389,11.538S18.111,36.346,18.111,30V11.539C18.111,5.193,23.236,0,29.5,0
		s11.389,5.193,11.389,11.539V30L40.889,30z"/>
</g>
</svg>
