<?xml version="1.0" encoding="utf-8"?>
<!-- Generator: Adobe Illustrator 15.0.0, SVG Export Plug-In . SVG Version: 6.00 Build 0)  -->
<!DOCTYPE svg PUBLIC "-//W3C//DTD SVG 1.1//EN" "http://www.w3.org/Graphics/SVG/1.1/DTD/svg11.dtd">
<svg version="1.1" id="Layer_1" xmlns="http://www.w3.org/2000/svg" xmlns:xlink="http://www.w3.org/1999/xlink" x="0px" y="0px"
	 width="60px" height="60px" viewBox="0 0 60 60" enable-background="new 0 0 60 60" xml:space="preserve">
<g>
	<path fill="#A7A9AC" d="M24.49,51.307c0-1.416-1.492-1.225-2.449-1.225H11.021c-3.367,0-6.123-2.756-6.123-6.123V17.021
		c0-3.368,2.755-6.123,6.123-6.123h12.245c1.722,0,1.225-2.602,1.225-3.673C24.49,6.574,23.916,6,23.265,6H11.021
		C4.936,6,0,10.936,0,17.021v26.938C0,50.043,4.936,54.98,11.021,54.98h12.245C24.987,54.98,24.49,52.377,24.49,51.307L24.49,51.307
		z M60,30.49c0-0.651-0.268-1.263-0.727-1.722L38.457,7.952c-0.46-0.459-1.072-0.727-1.723-0.727c-1.339,0-2.448,1.109-2.448,2.449
		v11.021H17.143c-1.339,0-2.449,1.11-2.449,2.449v14.693c0,1.34,1.11,2.449,2.449,2.449h17.143v11.021
		c0,1.338,1.109,2.449,2.448,2.449c0.65,0,1.263-0.27,1.723-0.729l20.816-20.816C59.732,31.752,60,31.141,60,30.49L60,30.49z"/>
</g>
</svg>
