<?xml version="1.0" encoding="utf-8"?>
<!-- Generator: Adobe Illustrator 15.0.0, SVG Export Plug-In . SVG Version: 6.00 Build 0)  -->
<!DOCTYPE svg PUBLIC "-//W3C//DTD SVG 1.1//EN" "http://www.w3.org/Graphics/SVG/1.1/DTD/svg11.dtd">
<svg version="1.1" id="Layer_1" xmlns="http://www.w3.org/2000/svg" xmlns:xlink="http://www.w3.org/1999/xlink" x="0px" y="0px"
	 width="60px" height="60px" viewBox="0 0 60 60" enable-background="new 0 0 60 60" xml:space="preserve">
<g>
	<path fill="#A7A9AC" d="M57,49.883C57,41.055,54.93,27.5,43.484,27.5c-1.211,0-6.328,5.43-13.984,5.43
		c-7.657,0-12.773-5.43-13.984-5.43C4.071,27.5,2,41.055,2,49.883C2,56.211,6.219,60,12.43,60h34.14C52.78,60,57,56.211,57,49.883
		L57,49.883z M40.481,47.067c0,0.453-0.025,0.853-0.078,1.188c-0.067,0.419-0.171,0.753-0.318,1.034
		c-0.189,0.362-0.439,0.642-0.742,0.831c-0.31,0.193-0.663,0.296-1.021,0.296h-5.368v5.962c0,0.389-0.108,0.755-0.313,1.062
		c-0.205,0.306-0.503,0.548-0.887,0.721c-0.262,0.121-0.593,0.213-1.001,0.276c-0.351,0.053-0.759,0.078-1.253,0.078
		c-0.495,0-0.903-0.025-1.248-0.077c-0.413-0.064-0.745-0.156-1.02-0.284c-0.356-0.16-0.647-0.389-0.854-0.673
		c-0.231-0.313-0.354-0.696-0.354-1.104v-5.962h-5.348c-0.371,0-0.73-0.109-1.04-0.316c-0.282-0.186-0.52-0.462-0.702-0.816
		c-0.143-0.273-0.249-0.602-0.321-0.996c-0.063-0.335-0.095-0.737-0.095-1.221c0-0.437,0.025-0.831,0.077-1.173
		c0.063-0.409,0.159-0.741,0.294-1.018c0.161-0.344,0.386-0.627,0.666-0.824c0.3-0.216,0.67-0.334,1.059-0.334h5.411v-5.943
		c0-0.376,0.108-0.744,0.313-1.063c0.213-0.329,0.516-0.581,0.901-0.757c0.28-0.129,0.611-0.221,1.013-0.281
		c0.7-0.104,1.795-0.104,2.496,0c0.401,0.061,0.732,0.152,1.013,0.281c0.4,0.182,0.706,0.447,0.91,0.785
		c0.192,0.33,0.283,0.672,0.283,1.035v5.943h5.433c0.361,0,0.715,0.109,1.023,0.316c0.293,0.198,0.529,0.482,0.704,0.846
		c0.133,0.282,0.227,0.607,0.288,1.003C40.456,46.236,40.481,46.631,40.481,47.067L40.481,47.067z M44.5,15c0-8.281-6.72-15-15-15
		c-8.281,0-15,6.719-15,15s6.719,15,15,15C37.78,30,44.5,23.281,44.5,15L44.5,15z"/>
</g>
</svg>
