<?xml version="1.0" encoding="utf-8"?>
<!-- Generator: Adobe Illustrator 15.0.0, SVG Export Plug-In . SVG Version: 6.00 Build 0)  -->
<!DOCTYPE svg PUBLIC "-//W3C//DTD SVG 1.1//EN" "http://www.w3.org/Graphics/SVG/1.1/DTD/svg11.dtd">
<svg version="1.1" id="Layer_1" xmlns="http://www.w3.org/2000/svg" xmlns:xlink="http://www.w3.org/1999/xlink" x="0px" y="0px"
	 width="60px" height="60px" viewBox="0 0 60 60" enable-background="new 0 0 60 60" xml:space="preserve">
<g>
	<g>
		<defs>
			<rect id="SVGID_1_" width="60" height="60"/>
		</defs>
		<clipPath id="SVGID_2_">
			<use xlink:href="#SVGID_1_"  overflow="visible"/>
		</clipPath>
		<path clip-path="url(#SVGID_2_)" fill="#A7A9AC" d="M56.645,44.598c0.002-0.037,0.012-0.071,0.012-0.108l-1.218-14.59
			l1.203-14.417c0.275-0.218,0.549-0.455,0.817-0.708c2.154-2.038,3.129-4.42,2.175-5.322c-0.954-0.902-3.473,0.019-5.628,2.058
			c-0.193,0.183-0.365,0.371-0.539,0.558c-0.089-0.005-0.173-0.024-0.263-0.024l-23.342,1.152L6.824,12.043
			c-0.127,0-0.247,0.022-0.37,0.035c-0.151-0.159-0.295-0.319-0.461-0.476C3.839,9.564,1.32,8.643,0.366,9.545
			c-0.954,0.902,0.02,3.285,2.175,5.322c0.28,0.266,0.567,0.509,0.855,0.734L4.59,29.899l-1.218,14.59
			c0,0.059,0.015,0.112,0.018,0.17c-0.219,0.181-0.439,0.363-0.654,0.566c-2.154,2.037-3.128,4.42-2.175,5.322
			c0.954,0.902,3.473-0.02,5.628-2.058c0.256-0.242,0.493-0.489,0.714-0.739l23.263-1.147l23.023,1.15
			c0.196,0.218,0.398,0.434,0.622,0.644c2.154,2.039,4.674,2.96,5.627,2.058c0.954-0.902-0.02-3.285-2.175-5.322
			C57.061,44.94,56.853,44.769,56.645,44.598L56.645,44.598z"/>
	</g>
</g>
</svg>
