<?xml version="1.0" encoding="utf-8"?>
<!-- Generator: Adobe Illustrator 15.0.0, SVG Export Plug-In . SVG Version: 6.00 Build 0)  -->
<!DOCTYPE svg PUBLIC "-//W3C//DTD SVG 1.1//EN" "http://www.w3.org/Graphics/SVG/1.1/DTD/svg11.dtd">
<svg version="1.1" id="Layer_1" xmlns="http://www.w3.org/2000/svg" xmlns:xlink="http://www.w3.org/1999/xlink" x="0px" y="0px"
	 width="60px" height="60px" viewBox="0 0 60 60" enable-background="new 0 0 60 60" xml:space="preserve">
<g>
	<g>
		<defs>
			<rect id="SVGID_1_" width="60" height="60"/>
		</defs>
		<clipPath id="SVGID_2_">
			<use xlink:href="#SVGID_1_"  overflow="visible"/>
		</clipPath>
		<path clip-path="url(#SVGID_2_)" fill="#A7A9AC" d="M34.286,48.183c0,0.604-0.469,1.105-1.071,1.105h-6.43
			c-0.603,0-1.071-0.502-1.071-1.105V41.82c0-0.603,0.469-1.104,1.071-1.104h6.43c0.603,0,1.071,0.502,1.071,1.104V48.183
			L34.286,48.183z M34.219,35.659c-0.033,0.436-0.535,0.771-1.138,0.771h-6.195c-0.636,0-1.139-0.335-1.139-0.771l-0.569-15.303
			c0-0.201,0.101-0.536,0.335-0.703c0.201-0.167,0.502-0.369,0.804-0.369h7.367c0.301,0,0.603,0.201,0.804,0.369
			c0.234,0.167,0.335,0.435,0.335,0.636L34.219,35.659L34.219,35.659z M33.75,4.383C33.014,3.01,31.574,2.14,30,2.14
			c-1.574,0-3.014,0.871-3.75,2.244L0.532,51.531c-0.737,1.307-0.703,2.914,0.067,4.22s2.177,2.109,3.684,2.109h51.434
			c1.508,0,2.914-0.804,3.684-2.109c0.771-1.306,0.804-2.913,0.067-4.22L33.75,4.383L33.75,4.383z"/>
	</g>
</g>
</svg>
