<?xml version="1.0" encoding="utf-8"?>
<!-- Generator: Adobe Illustrator 15.0.0, SVG Export Plug-In . SVG Version: 6.00 Build 0)  -->
<!DOCTYPE svg PUBLIC "-//W3C//DTD SVG 1.1//EN" "http://www.w3.org/Graphics/SVG/1.1/DTD/svg11.dtd">
<svg version="1.1" id="Layer_1" xmlns="http://www.w3.org/2000/svg" xmlns:xlink="http://www.w3.org/1999/xlink" x="0px" y="0px"
	 width="60px" height="60px" viewBox="0 0 60 60" enable-background="new 0 0 60 60" xml:space="preserve">
<g>
	<path fill="#A7A9AC" d="M32.83,21.549l-16.517-3.964c-0.175-0.045-0.34-0.003-0.515-0.019c-3.167-0.413-6.354,1.259-7.683,4.344
		L3.602,32.337c-1.604,3.724,0.109,8.022,3.821,9.619c0.635,0.271,1.287,0.414,1.939,0.504v13.827c0,2.048,1.667,3.713,3.718,3.713
		c2.051,0,3.716-1.665,3.716-3.713V38.598c0.085-0.166,0.193-0.309,0.267-0.481l4.513-10.435c0.237-0.552,0.38-1.116,0.478-1.684
		l9.182,2.206c1.835,0.439,3.685-0.691,4.124-2.533C35.803,23.838,34.669,21.985,32.83,21.549L32.83,21.549z"/>
	<path fill="#A7A9AC" d="M26.9,8.071c0,4.46-3.615,8.071-8.071,8.071c-4.458,0-8.073-3.611-8.073-8.071
		c0-4.46,3.614-8.071,8.073-8.071C23.286,0,26.9,3.611,26.9,8.071L26.9,8.071z"/>
	<path fill="#A7A9AC" d="M56.373,57.907c0,1.139-0.923,2.062-2.06,2.062H30.442c-1.137,0-2.062-0.924-2.062-2.062V33.675
		c0-1.135,0.924-2.06,2.062-2.06l23.871-0.003c1.137,0,2.06,0.924,2.06,2.062V57.907L56.373,57.907z"/>
</g>
</svg>
