<?xml version="1.0" encoding="utf-8"?>
<!-- Generator: Adobe Illustrator 15.0.0, SVG Export Plug-In . SVG Version: 6.00 Build 0)  -->
<!DOCTYPE svg PUBLIC "-//W3C//DTD SVG 1.1//EN" "http://www.w3.org/Graphics/SVG/1.1/DTD/svg11.dtd">
<svg version="1.1" id="Layer_1" xmlns="http://www.w3.org/2000/svg" xmlns:xlink="http://www.w3.org/1999/xlink" x="0px" y="0px"
	 width="60px" height="60px" viewBox="0 0 60 60" enable-background="new 0 0 60 60" xml:space="preserve">
<g>
	<g>
		<defs>
			<rect id="SVGID_1_" width="60" height="60"/>
		</defs>
		<clipPath id="SVGID_2_">
			<use xlink:href="#SVGID_1_"  overflow="visible"/>
		</clipPath>
		<path clip-path="url(#SVGID_2_)" fill="#A7A9AC" d="M30,44.324c0,2.898-2.327,5.226-5.225,5.226s-5.225-2.327-5.225-5.226
			c0-1.021,0.327-2,0.816-2.816c0.531-0.816,2.694-3.592,3.551-6.327c0.123-0.449,0.531-0.653,0.857-0.653s0.735,0.204,0.857,0.653
			c0.857,2.735,3.021,5.511,3.552,6.327C29.673,42.324,30,43.304,30,44.324L30,44.324z M50.9,39.1c0-4.123-1.225-7.96-3.307-11.226
			c-2.082-3.266-10.817-14.328-14.124-25.35C32.98,0.768,31.307-0.089,30-0.089c-1.306,0-2.939,0.857-3.47,2.613
			c-3.307,11.022-12.042,22.084-14.125,25.35C10.365,31.14,9.1,34.977,9.1,39.1C9.1,50.652,18.448,60,30,60
			C41.553,60,50.9,50.652,50.9,39.1L50.9,39.1z"/>
	</g>
</g>
</svg>
