<?xml version="1.0" standalone="no"?>
<!DOCTYPE svg PUBLIC "-//W3C//DTD SVG 1.1//EN" "http://www.w3.org/Graphics/SVG/1.1/DTD/svg11.dtd" >
<svg xmlns="http://www.w3.org/2000/svg">
<metadata>Generated by IcoMoon</metadata>
<defs>
<font id="icomoon" horiz-adv-x="512">
<font-face units-per-em="512" ascent="480" descent="-32" />
<missing-glyph horiz-adv-x="512" />
<glyph unicode="&#x20;" d="" horiz-adv-x="256" />
<glyph unicode="&#xe600;" d="M512 117.88c0 0-0.009 0.017-0.009 0.051v114.279c0 16.726-13.56 30.285-30.285 30.285-16.734 0-30.293-13.56-30.293-30.285v-84.062h-390.835v224.768c0 16.726-13.559 30.285-30.285 30.285-16.734 0-30.294-13.56-30.294-30.285v-299c0-16.734 13.559-30.285 30.294-30.285 16.726 0 30.285 13.551 30.285 30.285v13.671h390.835v-13.671c0-16.734 13.56-30.285 30.293-30.285 16.726 0 30.285 13.551 30.285 30.285v43.913c0 0.026 0.009 0.034 0.009 0.051v0zM127.454 179.729c26.265 0 47.547 21.282 47.547 47.548s-21.282 47.548-47.547 47.548-47.547-21.282-47.547-47.548c0-26.257 21.282-47.548 47.547-47.548v0zM375.168 248.746h-124.245c-34.304 0-62.114-27.81-62.114-62.114h248.482c-0.009 34.304-27.827 62.114-62.123 62.114v0z" />
<glyph unicode="&#xe601;" d="M426.666 224c0-91.077-68.027-166.161-155.503-176v-40.618h77.747c10.632 0 19.439-8.918 19.439-19.695s-8.798-19.687-19.43-19.687h-194.373c-10.632 0-19.439 8.918-19.439 19.695s8.806 19.695 19.439 19.695h77.747v40.618c-87.466 9.83-155.494 84.915-155.494 175.992v39.39c0 10.769 8.806 19.687 19.439 19.687s19.439-8.918 19.439-19.687v-39.39c0-75.998 61.047-137.847 136.055-137.847 75.016 0 136.055 61.849 136.055 137.847v39.39c0 10.769 8.807 19.686 19.439 19.686 10.624 0 19.43-8.917 19.43-19.686v-39.39h0.009zM348.92 224c0-54.153-43.733-98.457-97.186-98.457s-97.186 44.305-97.186 98.457v157.534c0 54.153 43.733 98.466 97.186 98.466s97.186-44.314 97.186-98.466v-157.534z" />
<glyph unicode="&#xe602;" d="M457.447-4.531c0 4.864-4.293 9.156-9.147 9.156h-384.598c-4.864 0-9.157-4.293-9.157-9.156v-18.313c0-4.864 4.292-9.156 9.157-9.156h384.598c4.856 0 9.147 4.293 9.147 9.156v18.313zM384.197 297.651c0 96.717-67.533 146.799-146.509 183.134l0.281-0.281-0.862 0.281c8.875-17.45 18.893-44.066 18.893-64.094 0-72.969-128.196-82.697-128.196-192.299 0-96.717 67.533-146.799 146.509-183.134l-0.29 0.281 1.152-0.281c-9.156 17.45-19.174 44.066-19.174 64.103 0 72.96 128.196 82.688 128.196 192.29v0z" />
<glyph unicode="&#xe604;" d="M401.067 250.368l-88.687 34.346c-6.417 24.866-27.503 44.382-54.545 47.181-9.839 1.015-19.294-0.495-27.998-3.653-0.196-0.094-0.401-0.034-0.597-0.128l-120.61-49.817c-12.219-5.095-17.989-19.209-12.954-31.463 5.026-12.185 18.969-17.894 31.181-12.74l59.827 24.618-6.954-67.131c-2.748-26.675 11.546-51.029 34.005-62.618l-60.16-116.736c-7.646-14.865-1.809-33.195 13.073-40.849 14.916-7.706 33.212-1.817 40.858 13.031l65.033 126.157c0.179 0.307 0.128 0.674 0.281 1.007l39.688-33.246 26.112-88.482c4.796-16.051 21.666-25.199 37.735-20.471 16.12 4.796 25.233 21.735 20.463 37.692l-28.348 95.932c-1.433 4.915-4.267 8.866-7.611 12.271-1.365 1.826-2.44 3.806-4.258 5.308l-53.82 44.997c1.349 4.147 2.313 8.465 2.765 12.979l5.735 55.254 72.064-28.032c12.365-4.787 26.274 1.314 31.181 13.602 4.889 12.331-1.238 26.206-13.457 30.993v0zM380.279 411.733c0-37.691-30.55-68.267-68.267-68.267-37.7 0-68.267 30.575-68.267 68.267s30.567 68.267 68.267 68.267 68.267-30.575 68.267-68.267v0z" />
<glyph unicode="&#xe605;" d="M436.753 227.669v-131.669c0-70.664-64.563-128-143.897-128s-143.906 57.336-143.906 128v43.998c-69.709 9.002-123.35 62.336-123.35 126.669v170.666c0 11.674 9.31 21.334 20.557 21.334 1.928 0 3.533-0.333 5.145-0.666 7.057 12.997 20.557 21.999 35.968 21.999 22.809 0 41.114-19.004 41.114-42.666s-18.313-42.666-41.114-42.666c-7.382 0-14.456 2.329-20.557 5.999v-133.999c0-47.002 46.251-85.334 102.784-85.334s102.784 38.332 102.784 85.334v133.999c-6.093-3.67-13.167-5.999-20.548-5.999-22.81 0-41.113 19.004-41.113 42.666s18.313 42.666 41.113 42.666c15.42 0 28.911-9.002 35.976-21.999 1.604 0.333 3.217 0.666 5.137 0.666 11.238 0 20.557-9.659 20.557-21.334v-170.666c0-64.333-53.64-117.666-123.35-126.669v-43.998c0-47.002 46.259-85.334 102.792-85.334 56.525 0 102.784 38.332 102.784 85.334v131.669c-24.081 9.002-41.113 32.333-41.113 60.331 0 35.328 27.631 64 61.679 64s61.671-28.672 61.671-64c0-27.998-17.024-51.337-41.113-60.331v0zM416.188 309.333c-11.238 0-20.557-9.659-20.557-21.333s9.318-21.334 20.557-21.334c11.247 0 20.557 9.66 20.557 21.334s-9.301 21.334-20.557 21.334v0z" />
<glyph unicode="&#xe606;" d="M255.958 42.666c-100.002 0-181.333 81.331-181.333 181.334s81.331 181.333 181.333 181.333v-362.666zM511.957 224c0 141.329-114.671 256-256 256s-255.958-114.671-255.958-256 114.629-256 255.958-256 256 114.671 256 256v0z" />
<glyph unicode="&#xe607;" d="M481.28 394.666c-16.973 0-30.728-13.747-30.728-30.72v-4.394h-389.111v4.394c0 16.973-13.764 30.72-30.72 30.72-16.973 0-30.72-13.747-30.72-30.72v-295.501c0-16.964 13.747-30.72 30.72-30.72 16.956 0 30.72 13.747 30.72 30.72v41.916h389.12v-41.916c0-16.964 13.747-30.72 30.728-30.72 16.956 0 30.72 13.747 30.72 30.72v295.501c-0.009 16.973-13.764 30.72-30.728 30.72v0zM174.336 321.528h46.635v-130.697h-46.635v130.697zM162.629 190.822h-46.651v130.705h46.651v-130.705zM232.679 321.528h46.652v-130.697h-46.651v130.697zM291.029 321.528h46.635v-130.697h-46.635v130.697zM349.372 321.528h46.651v-130.697h-46.651v130.697zM61.44 321.528h42.838v-130.697h-42.837v130.697zM450.56 190.822h-42.837v130.705h42.837v-130.705z" />
<glyph unicode="&#xe608;" d="M149.299 74.513c0 11.673-9.668 21.342-21.342 21.342s-21.342-9.668-21.342-21.342c0-11.665 9.668-21.342 21.342-21.342s21.342 9.677 21.342 21.342v0zM490.752 54.178c0 66.355-13.329 171.067-92.697 188.407 9.677-22.673 7.339-48.682 7.339-73.028 26.342-15.002 42.675-43.341 42.675-73.694v-29.679c6.673-5.999 10.675-14.678 10.675-23.671 0-17.673-14.344-32.009-32.017-32.009-17.664 0-32.008 14.336-32.008 32.009 0 9.002 4.002 17.673 10.675 23.671v29.679c0 23.339-19.345 42.683-42.683 42.683s-42.683-19.345-42.683-42.683v-29.679c6.664-5.999 10.666-14.678 10.666-23.671 0-17.673-14.336-32.009-32.009-32.009s-32.017 14.336-32.017 32.009c0 9.002 4.010 17.673 10.675 23.671v29.679c0 47.019 38.349 85.368 85.368 85.368v21.342c0 11-0.998 22.007-8.346 31.010-28.007-22.007-62.686-34.671-98.363-34.671s-70.358 12.663-98.363 34.671c-7.339-9.002-8.337-20.010-8.337-31.010v-67.695c25.344-9.002 42.675-33.349 42.675-60.356 0-35.345-28.672-64.017-64.017-64.017s-64.025 28.672-64.025 64.017c0 27.008 17.007 51.362 42.684 60.356v67.695c0 13.671 1.997 27.341 7.338 40.013-79.368-17.34-92.706-122.052-92.706-188.407 0-54.349 35.678-86.357 89.028-86.357h291.439c53.359 0 89.037 32 89.037 86.358v0zM384.051 351.957c0 70.69-57.361 128.043-128.051 128.043s-128.042-57.353-128.042-128.043 57.352-128.051 128.042-128.051 128.051 57.352 128.051 128.051v0z" />
<glyph unicode="&#xe60a;" d="M122.675 11.255h-36.156v43.255h-43.264v36.156l30.754 30.754 79.419-79.42-30.754-30.745zM299.426 324.881c0-2.031-0.674-4.053-2.363-5.743l-183.168-183.168c-1.689-1.69-3.721-2.363-5.743-2.363-4.394 0-7.441 3.038-7.441 7.433 0 2.022 0.683 4.062 2.364 5.743l183.176 183.177c1.681 1.689 3.721 2.363 5.743 2.363 4.386-0.008 7.433-3.055 7.433-7.441v0zM281.173 389.769l-281.173-281.173v-140.595h140.587l281.182 281.182-140.595 140.587zM512 357.325c0 11.486-4.736 22.639-12.502 30.754l-79.428 79.087c-8.106 8.107-19.251 12.834-30.745 12.834s-22.639-4.727-30.413-12.842l-56.106-55.766 140.587-140.587 56.106 56.098c7.765 7.774 12.502 18.927 12.502 30.422v0z" />
<glyph unicode="&#xe60b;" d="M453.563 371.43l-89.147 89.139c-10.565 10.573-31.719 19.43-46.848 19.43h-256c-15.147 0-27.434-12.288-27.434-27.426v-457.147c0-15.147 12.288-27.426 27.426-27.426h384c15.13 0 27.418 12.279 27.418 27.426v329.147c0.009 15.147-8.841 36.284-19.413 46.856v0zM326.699 441.139c4.864-1.715 9.719-4.284 11.716-6.281l89.43-89.43c1.997-1.997 4.565-6.861 6.281-11.716h-107.435v107.426h0.009zM436.421 4.574h-365.713v438.853h219.426v-118.861c0-15.138 12.279-27.426 27.435-27.426h118.853v-292.565zM204.68 115.209c56.841 0 102.921 46.072 102.921 102.912s-46.080 102.921-102.921 102.921-102.921-46.072-102.921-102.921c0-56.841 46.080-102.912 102.921-102.912v0zM341.034 22.579c35.533 0 64.333 28.8 64.333 64.315 0 35.524-28.8 64.325-64.333 64.325-35.515 0-64.315-28.8-64.315-64.325 0-35.515 28.8-64.315 64.315-64.315v0z" />
<glyph unicode="&#xe60c;" d="M438.127 193.050c0 0.64 0 1.272-0.315 1.911l-182.272 150.246-182.272-150.246c0-0.632-0.325-1.263-0.325-1.911v-152.149c0-11.102 9.199-20.293 20.284-20.293h121.728v121.728h81.152v-121.728h121.728c11.094 0 20.284 9.19 20.284 20.293v152.149h0.009zM508.817 214.929c3.481 4.122 2.85 10.778-1.263 14.268l-69.427 57.694v129.322c0 5.7-4.438 10.137-10.137 10.137h-60.868c-5.7 0-10.137-4.438-10.137-10.137v-61.815l-77.346 64.666c-13.32 11.093-34.867 11.093-48.179 0l-227.925-189.875c-4.122-3.49-4.761-10.138-1.272-14.268l19.652-23.458c1.587-1.903 4.122-3.166 6.656-3.481 2.85-0.315 5.385 0.632 7.611 2.219l219.358 182.904 219.367-182.904c1.903-1.587 4.113-2.219 6.647-2.219 0.315 0 0.632 0 0.947 0 2.543 0.315 5.077 1.587 6.656 3.481l19.661 23.466z" />
<glyph unicode="&#xe60d;" d="M511.599 187.384c0 12.262-13.901 15.249-23.697 15.249h-296.226c-23.962 0-56.089-14.703-71.876-33.221l-91.486-107.81c-4.361-4.898-8.44-11.435-8.44-17.971 0-12.254 13.883-15.24 23.688-15.24h296.217c23.97 0 56.098 14.703 71.885 33.221l91.486 107.819c4.352 4.889 8.448 11.418 8.448 17.954v0zM418.202 281.046c0 33.485-27.503 60.988-60.979 60.988h-148.121v8.712c0 33.494-27.494 60.988-60.987 60.988h-87.126c-33.485 0-60.987-27.494-60.987-60.988v-261.376c0-2.176 0.273-4.625 0.273-6.81l1.365 1.639 91.751 107.819c22.050 26.129 64.256 45.465 98.287 45.465h226.526v43.563z" />
<glyph unicode="&#xe60e;" d="M173.56 124.348c95.855 0 173.56 77.696 173.56 173.56 0 95.855-77.704 173.56-173.56 173.56s-173.56-77.704-173.56-173.56c0-95.855 77.704-173.56 173.56-173.56v0zM403.524-31.863c59.913 0 108.476 48.563 108.476 108.484 0 59.904-48.563 108.467-108.476 108.467s-108.476-48.563-108.476-108.467c0-59.921 48.572-108.485 108.476-108.485v0z" />
<glyph unicode="&#xe60f;" d="M395.648 158.131c0-77.125-62.524-139.648-139.656-139.648s-139.656 62.524-139.656 139.648c0 77.133 62.524 139.656 139.656 139.656s139.656-62.524 139.656-139.656v0zM483.37 109.329c0.017 0.341 0.103 0.64 0.103 0.973l-10.394 131.626 10.265 130.065c2.346 1.971 4.685 4.104 6.971 6.391 18.381 18.381 26.701 39.877 18.56 48.017s-29.637-0.179-48.026-18.56c-1.647-1.655-3.115-3.353-4.608-5.034-0.751 0.051-1.467 0.222-2.236 0.222l-199.185-10.393-196.591 10.385c-1.084 0-2.108-0.205-3.157-0.315-1.28 1.433-2.517 2.885-3.925 4.293-18.389 18.398-39.885 26.701-48.026 18.568-8.141-8.141 0.171-29.637 18.56-48.017 2.39-2.398 4.838-4.599 7.296-6.63l10.189-128.99-10.393-131.627c0-0.529 0.128-1.015 0.154-1.536-1.878-1.622-3.746-3.277-5.581-5.103-18.381-18.381-26.692-39.885-18.56-48.017 8.141-8.141 29.637 0.171 48.026 18.56 2.184 2.185 4.207 4.421 6.093 6.664l67.422 3.515c-12.407 21.769-19.593 46.899-19.593 73.745 0 82.44 66.833 149.274 149.265 149.274s149.273-66.833 149.273-149.274c0-26.829-7.176-51.934-19.558-73.685l68.173-3.601c1.673-1.954 3.397-3.909 5.308-5.811 18.381-18.389 39.885-26.701 48.017-18.56 8.141 8.132-0.171 29.637-18.56 48.017-1.733 1.741-3.507 3.294-5.282 4.839v0z" />
<glyph unicode="&#xe610;" d="M208.982 42.18c0 12.083-12.732 10.454-20.898 10.454h-94.037c-28.731 0-52.249 23.518-52.249 52.25v229.871c0 28.74 23.51 52.25 52.249 52.25h104.49c14.695 0 10.453 22.204 10.453 31.343-0.008 5.555-4.906 10.454-10.462 10.454h-104.482c-51.925 0-94.046-42.12-94.046-94.046v-229.871c0-51.917 42.12-94.046 94.046-94.046h104.49c14.686 0 10.445 22.212 10.445 31.343v0zM512 219.818c0 5.555-2.287 10.778-6.204 14.695l-177.63 177.63c-3.925 3.917-9.147 6.204-14.703 6.204-11.426 0-20.889-9.464-20.889-20.898v-94.046h-146.287c-11.426 0-20.898-9.472-20.898-20.898v-125.381c0-11.435 9.472-20.898 20.898-20.898h146.287v-94.046c0-11.418 9.464-20.898 20.889-20.898 5.546 0 10.777 2.304 14.703 6.221l177.63 177.63c3.917 3.917 6.204 9.13 6.204 14.686v0z" />
<glyph unicode="&#xe611;" d="M486.4 54.332c0 75.332-17.664 191.001-115.337 191.001-10.334 0-53.999-46.336-119.33-46.336-65.339 0-108.996 46.336-119.33 46.336-97.664 0-115.337-115.67-115.337-191.002 0-53.999 36.002-86.332 89.002-86.332h291.328c52.992 0 89.002 32.333 89.002 86.332v0zM345.438 78.361c0-3.865-0.214-7.279-0.666-10.137-0.572-3.575-1.459-6.425-2.714-8.824-1.613-3.089-3.746-5.478-6.332-7.091-2.646-1.647-5.658-2.526-8.712-2.526h-45.807v-50.875c0-3.32-0.921-6.442-2.671-9.063-1.75-2.611-4.293-4.676-7.569-6.152-2.236-1.033-5.060-1.817-8.542-2.355-2.995-0.452-6.477-0.666-10.692-0.666-4.224 0-7.706 0.214-10.649 0.657-3.524 0.546-6.357 1.331-8.704 2.423-3.038 1.365-5.521 3.32-7.287 5.743-1.971 2.671-3.021 5.939-3.021 9.421v50.875h-45.637c-3.166 0-6.23 0.93-8.875 2.697-2.406 1.587-4.438 3.942-5.99 6.963-1.22 2.329-2.125 5.137-2.739 8.499-0.537 2.858-0.81 6.289-0.81 10.419 0 3.729 0.214 7.091 0.657 10.010 0.537 3.49 1.357 6.323 2.509 8.687 1.374 2.935 3.294 5.351 5.683 7.031 2.56 1.843 5.718 2.85 9.037 2.85h46.174v50.714c0 3.209 0.922 6.349 2.671 9.071 1.817 2.808 4.403 4.958 7.689 6.459 2.389 1.101 5.214 1.886 8.644 2.398 5.974 0.887 15.317 0.887 21.299 0 3.422-0.521 6.247-1.297 8.644-2.398 3.413-1.553 6.024-3.815 7.765-6.699 1.639-2.816 2.415-5.735 2.415-8.832v-50.714h46.361c3.080 0 6.101-0.93 8.729-2.697 2.5-1.69 4.514-4.113 6.007-7.219 1.135-2.406 1.937-5.18 2.457-8.559 0.461-3.021 0.674-6.392 0.674-10.112v0zM379.733 352c0 70.664-57.344 128-128 128-70.665 0-128-57.336-128-128s57.335-128 128-128c70.656 0 128 57.336 128 128v0z" />
<glyph unicode="&#xe612;" d="M483.37 99.43c0.017 0.315 0.103 0.606 0.103 0.921l-10.394 124.501 10.265 123.025c2.346 1.861 4.685 3.882 6.971 6.041 18.381 17.391 26.701 37.718 18.56 45.414s-29.637-0.162-48.026-17.561c-1.647-1.561-3.115-3.166-4.599-4.762-0.76 0.043-1.476 0.205-2.245 0.205l-199.185-9.831-196.591 9.847c-1.084 0-2.108-0.188-3.157-0.298-1.288 1.357-2.517 2.722-3.934 4.062-18.381 17.391-39.877 25.25-48.017 17.553s0.171-28.032 18.56-45.414c2.39-2.27 4.838-4.344 7.296-6.264l10.189-122.010-10.393-124.501c0-0.503 0.128-0.955 0.154-1.45-1.869-1.545-3.746-3.098-5.581-4.83-18.381-17.382-26.692-37.717-18.56-45.414 8.141-7.697 29.637 0.171 48.026 17.562 2.184 2.065 4.207 4.173 6.093 6.306l198.511 9.788 196.463-9.813c1.673-1.861 3.397-3.704 5.308-5.495 18.381-17.399 39.885-25.259 48.017-17.562 8.141 7.697-0.171 28.032-18.56 45.414-1.724 1.647-3.498 3.106-5.274 4.565v0z" />
<glyph unicode="&#xe613;" d="M404.31-41.31h-296.627c-53.965 0-90.615 32.93-90.615 87.911 0 76.689 17.989 194.466 117.427 194.466 10.522 0 54.981-47.173 121.506-47.173s110.985 47.173 121.498 47.173c99.456 0 117.435-117.777 117.435-194.466 0-54.981-36.659-87.911-90.624-87.911v0zM256 219.341c-71.945 0-130.321 58.376-130.321 130.329s58.376 130.329 130.321 130.329c71.953 0 130.321-58.377 130.321-130.321 0-71.962-58.368-130.338-130.321-130.338v0z" />
<glyph unicode="&#xe614;" d="M292.574 68.839c0-5.154-4.002-9.43-9.139-9.43h-54.87c-5.145 0-9.139 4.284-9.139 9.43v54.298c0 5.146 4.002 9.421 9.139 9.421h54.87c5.146 0 9.139-4.284 9.139-9.421v-54.298zM292.002 175.71c-0.281-3.721-4.565-6.579-9.711-6.579h-52.864c-5.427 0-9.72 2.858-9.72 6.579l-4.856 130.585c0 1.715 0.862 4.574 2.858 5.999 1.715 1.425 4.284 3.149 6.861 3.149h62.865c2.568 0 5.146-1.715 6.861-3.149 1.997-1.425 2.858-3.712 2.858-5.427l-5.154-131.157zM288 442.599c-6.281 11.716-18.568 19.14-32 19.14s-25.72-7.432-32-19.149l-219.46-402.321c-6.289-11.153-5.999-24.866 0.572-36.010s18.577-17.997 31.437-17.997h438.904c12.868 0 24.866 6.861 31.437 17.997 6.579 11.144 6.861 24.858 0.572 36.010l-219.461 402.329z" />
<glyph unicode="&#xe615;" d="M280.149 296.115l-140.945 33.826c-1.494 0.384-2.901 0.025-4.394 0.162-27.025 3.524-54.221-10.743-65.561-37.069l-38.511-88.977c-13.688-31.778 0.93-68.454 32.606-82.082 5.418-2.313 10.983-3.533 16.546-4.301v-117.99c0-17.476 14.225-31.685 31.727-31.685s31.71 14.208 31.71 31.685v150.946c0.726 1.416 1.647 2.637 2.279 4.104l38.511 89.046c2.023 4.71 3.243 9.523 4.079 14.37l78.353-18.825c15.659-3.746 31.445 5.897 35.192 21.615 3.781 15.642-5.897 31.454-21.589 35.175v0zM229.547 411.127c0-38.059-30.848-68.873-68.873-68.873-38.041 0-68.889 30.814-68.889 68.873s30.84 68.873 68.889 68.873c38.033 0 68.873-30.814 68.873-68.873v0zM481.050-14.139c0-9.719-7.877-17.596-17.579-17.596h-203.699c-9.702 0-17.596 7.885-17.596 17.596v206.779c0 9.685 7.885 17.579 17.596 17.579l203.699 0.026c9.702 0 17.579-7.885 17.579-17.596v-206.788z" />
<glyph unicode="&#xe616;" d="M256 101.769c0-24.73-19.857-44.595-44.587-44.595s-44.587 19.857-44.587 44.595c0 8.712 2.791 17.067 6.963 24.030 4.531 6.963 22.989 30.651 30.302 53.99 1.049 3.832 4.531 5.572 7.313 5.572s6.272-1.741 7.313-5.572c7.313-23.339 25.779-47.027 30.31-53.99 4.181-6.963 6.971-15.326 6.971-24.030v0zM434.346 146.346c0 35.183-10.454 67.925-28.219 95.795s-92.305 122.266-120.525 216.32c-4.173 14.985-18.449 22.298-29.602 22.298-11.144 0-25.079-7.313-29.611-22.298-28.22-94.055-102.758-188.45-120.534-216.32-17.408-27.87-28.203-60.613-28.203-95.795 0-98.577 79.769-178.346 178.346-178.346 98.585 0 178.346 79.769 178.346 178.346v0z" />
<glyph unicode="&#xe617;" d="M380.332-32h-291.332c-53.334 0-89.001 32.004-89.001 86.339 0 66.335 13.332 170.994 92.663 188.329-5.326-12.667-7.327-26.329-7.327-39.996v-67.669c-25.672-8.998-42.668-33.329-42.668-60.335 0-35.327 28.666-63.993 63.998-63.993 35.337 0 64.002 28.666 64.002 63.993 0 27.005-17.335 51.337-42.664 60.335v67.669c0 10.995 0.996 22 8.328 30.994 28.005-21.995 62.667-34.666 98.334-34.666s70.328 12.671 98.333 34.666c7.332-8.993 8.328-19.998 8.328-30.993v-21.334c-46.996 0-85.327-38.334-85.327-85.331v-29.672c-6.671-6-10.67-14.658-10.67-23.661 0-17.666 14.333-32 31.999-32 17.671 0 32.003 14.332 32.003 32 0 9.003-3.999 17.66-10.67 23.661v29.672c0 23.33 19.332 42.664 42.664 42.664 23.341 0 42.67-19.332 42.67-42.664v-29.672c-6.666-6-10.664-14.658-10.664-23.661 0-17.666 14.332-32 32.003-32 17.661 0 31.994 14.332 31.994 32 0 9.003-3.999 17.66-10.664 23.661v29.672c0 30.332-16.334 58.663-42.668 73.661 0 24.337 2.332 50.336-7.327 73.001 79.332-17.335 92.663-121.994 92.663-188.329-0.001-54.334-35.667-86.339-89-86.339zM106.666 53.337c-11.665 0-21.329 9.663-21.329 21.329 0 11.67 9.665 21.339 21.329 21.339 11.671 0 21.339-9.669 21.339-21.339 0-11.665-9.669-21.329-21.338-21.329zM234.666 224c-70.668 0-128 57.332-128 127.996 0.001 70.672 57.333 128.004 128 128.004s128-57.332 128-128.005c0-70.663-57.332-127.995-128-127.995z" horiz-adv-x="470" />
<glyph unicode="&#xe618;" d="M512.004 224.001c0-141.386-114.616-256.002-256.002-256.002s-256.002 114.616-256.002 256.002c0 141.386 114.616 256.002 256.002 256.002s256.002-114.616 256.002-256.002z" />
<glyph unicode="&#xe619;" d="M237.861 472.488l-230.346-230.345c-10.022-10.021-10.018-26.266-0.002-36.284l230.346-230.346c10.014-10.015 26.263-10.019 36.282 0.002l230.347 230.346c10.019 10.021 10.015 26.266 0 36.282l-230.347 230.345c-10.017 10.015-26.26 10.019-36.281 0z" />
<glyph unicode="&#xe61a;" d="M416.658 271.671c0 115.056-93.272 208.329-208.329 208.329-115.056 0-208.328-93.273-208.328-208.329 0-111.73 87.961-202.911 198.41-208.089v-18.125h-40.71c-8.353 0-15.121-6.763-15.121-15.121s6.768-15.119 15.121-15.119h40.71v-32.099c0-8.351 6.763-15.118 15.121-15.118s15.119 6.767 15.119 15.118v32.099h36.239c8.349 0 15.119 6.762 15.119 15.119s-6.77 15.121-15.119 15.121h-36.239v18.873c105.519 10.217 188.008 99.142 188.008 207.341zM208.328 95.67c-97.203 0-176 78.798-176 176.001s78.796 176.003 176 176.003 176.004-78.8 176.004-176.003-78.801-176.001-176.004-176.001z" horiz-adv-x="417" />
<glyph unicode="&#xe61b;" d="M478.021 480h-176.403c-5.025-2.716-8.442-8.033-8.442-14.158 0-8.891 7.199-16.080 16.083-16.080h153.366l-94.18-94.178c-39.099 34.615-90.507 55.641-146.834 55.641-122.391 0-221.611-99.218-221.611-221.612s99.219-221.613 221.612-221.613c122.394 0 221.614 99.219 221.614 221.613 0 54.488-19.675 104.374-52.296 142.965l94.44 94.438v-153.365c0-8.881 7.192-16.080 16.086-16.080 8.891 0 16.081 7.197 16.081 16.080v166.834c0 21.817-17.688 39.514-39.514 39.514zM408.837 189.613c0-103.401-83.826-187.224-187.226-187.224s-187.223 83.822-187.223 187.224c0 103.401 83.822 187.222 187.222 187.222s187.227-83.822 187.227-187.222z" horiz-adv-x="518" />
<glyph unicode="&#xe61c;" d="M353.997 245.326c-10.332 0-53.997-46.331-119.332-46.331-65.331 0-108.996 46.332-119.332 46.332-97.663 0-115.332-115.668-115.332-190.995 0-54.001 36-86.332 88.998-86.332h291.332c53.004 0 88.998 32.331 88.998 86.332 0 75.327-17.665 190.994-115.332 190.994zM306.595 74.861c0-5.784-4.793-10.577-10.577-10.577h-42.311v-42.314c0-5.787-4.797-10.577-10.582-10.577h-21.155c-5.786 0-10.583 4.791-10.583 10.577v42.314h-42.311c-5.785 0-10.577 4.793-10.577 10.577v21.156c0 5.784 4.792 10.577 10.577 10.577h42.311v42.316c0 5.784 4.797 10.577 10.583 10.577h21.155c5.785 0 10.582-4.793 10.582-10.577v-42.316h42.311c5.784 0 10.577-4.793 10.577-10.577v-21.156zM234.663 223.998c70.668 0 128.001 57.333 128.001 128.002 0 70.667-57.333 128-128.001 128s-127.996-57.333-127.996-128.002c0-70.668 57.328-128 127.996-128z" horiz-adv-x="470" />
<glyph unicode="&#xe61d;" d="M512.005 224.001c0 141.383-114.616 255.999-256.004 255.999-141.383 0-256-114.615-256-255.999 0-141.391 114.617-256.001 256-256.001 141.387 0 256.004 114.61 256.004 256.001z" />
<glyph unicode="&#xe61f;" d="M428.115 73.349c-5.447 5.447-14.26 5.462-19.729 0.057l-0.039 0.039c-48.081-48.079-110.074-73.75-173.019-77.030v40.445c52.163 3.174 103.422 24.675 143.282 64.532 86.608 86.611 86.608 227.038-0.002 313.648-86.611 86.613-227.037 86.613-313.648 0.003-86.613-86.613-86.613-227.037 0-313.651 38.556-38.556 87.783-59.935 138.176-64.161 0 0 0-24.003 0.002-40.548-61.272 4.239-121.352 29.731-168.244 76.487-0.099 0.106-0.188 0.219-0.294 0.326-5.463 5.464-14.326 5.469-19.793 0.002-5.464-5.467-5.464-14.329 0.002-19.796 0.010-0.009 0.020-0.017 0.030-0.026l-0.059-0.059c114.129-114.13 299.151-114.155 413.312-0.079 0.008 0.005 0.017 0.010 0.022 0.017 0.005 0.005 0.005 0.010 0.010 0.015 0.015 0.015 0.034 0.029 0.050 0.045l-0.005 0.002c5.409 5.472 5.39 14.287-0.054 19.731zM89.294 125.726c-73.173 73.175-73.17 191.808 0.002 264.979 73.173 73.17 191.803 73.173 264.978 0 73.17-73.173 73.17-191.805 0-264.974-73.175-73.173-191.81-73.175-264.979-0.005z" horiz-adv-x="444" />
<glyph unicode="&#xe620;" d="M512.433 187.913c0 161.279-130.71 292.025-291.974 292.086-0.010 0-0.017 0.001-0.027 0.001-0.007 0-0.012-0.001-0.017-0.001-0.022 0-0.044 0.001-0.066 0.001v-0.003c-7.684-0.046-13.901-6.286-13.901-13.98 0-7.695 6.216-13.935 13.901-13.981v-0.055c67.939 0 129.879-25.665 176.672-67.82l-28.576-28.578c-39.099 34.615-90.506 55.641-146.833 55.641-122.392 0-221.611-99.217-221.611-221.609 0-122.394 99.219-221.613 221.611-221.613s221.61 99.219 221.61 221.613c0 54.484-19.674 104.37-52.294 142.962 0 0.002 16.959 16.962 28.65 28.651 40.296-46.286 64.734-106.746 64.829-172.915-0.005-0.145-0.022-0.288-0.022-0.437 0-7.723 6.259-13.988 13.982-13.988s13.985 6.264 13.985 13.988c0 0.012-0.003 0.027-0.003 0.039h0.084zM408.835 189.613c0-103.404-83.822-187.222-187.224-187.222-103.398 0-187.221 83.818-187.221 187.222 0 103.399 83.823 187.221 187.221 187.221 103.401 0 187.224-83.822 187.224-187.221z" horiz-adv-x="513" />
<glyph unicode="&#xe621;" d="M335.893 413.858c-10.159 28.992-41.873 44.285-70.873 34.262-29.066-10.224-44.359-41.993-34.2-71.002l3.024-8.637h-74.681l-53.069 85.28c-16.252 26.053-50.532 34.060-76.643 17.861-26.107-16.289-34.085-50.609-17.842-76.734l46.697-74.979c-9.112-15.067-14.642-32.505-14.642-51.404 0-55.228 44.783-99.978 99.987-99.978h137.391c55.204 0 99.987 44.747 99.987 99.978 0 9.43-45.136 145.353-45.136 145.353zM638.407 287.7c0-65.862-53.343-119.188-119.142-119.188-65.793 0-119.136 53.326-119.136 119.188 0 65.789 53.344 119.098 119.136 119.098 65.798-0.002 119.142-53.309 119.142-119.098zM654.825 14.93c0-25.942-21.015-46.93-46.938-46.93h-560.952c-25.922 0-46.935 20.987-46.935 46.93 0 25.96 21.014 46.949 46.935 46.949h560.952c25.923-0.002 46.938-20.989 46.938-46.949z" horiz-adv-x="655" />
<glyph unicode="&#xe623;" d="M477.167 480h-442.329c-19.241 0-34.837-15.601-34.837-34.836v-442.329c0-19.234 15.597-34.835 34.837-34.835h442.329c19.243 0 34.835 15.601 34.835 34.836v442.329c0 19.234-15.592 34.836-34.836 34.836z" />
<glyph unicode="&#xe624;" d="M307.193 250.374l-88.675 34.347c-6.412 24.86-27.504 44.385-54.539 47.178-9.84 1.010-19.293-0.49-27.999-3.653-0.195-0.090-0.399-0.030-0.594-0.125l-120.615-49.813c-12.217-5.098-17.989-19.22-12.954-31.468 5.035-12.188 18.969-17.891 31.191-12.738l59.818 24.621-6.958-67.132c-2.747-26.669 11.544-51.046 34.011-62.615l-60.157-116.73c-7.641-14.861-1.814-33.177 13.073-40.861 14.921-7.701 33.21-1.804 40.852 13.049l65.030 126.158c0.173 0.306 0.121 0.671 0.275 1.015l39.701-33.246 26.103-88.49c4.792-16.052 21.678-25.206 37.731-20.474 16.115 4.783 25.227 21.733 20.474 37.689l-28.364 95.924c-1.444 4.908-4.271 8.87-7.615 12.279-1.363 1.81-2.441 3.803-4.245 5.307l-53.832 44.999c1.349 4.139 2.32 8.471 2.781 12.983l5.728 55.249 72.070-28.020c12.367-4.786 26.265 1.319 31.181 13.598 4.883 12.309-1.255 26.181-13.476 30.969zM286.42 411.733c0-37.692-30.559-68.266-68.267-68.266-37.701 0-68.265 30.573-68.265 68.266 0 37.695 30.565 68.267 68.265 68.267 37.708 0 68.267-30.572 68.267-68.267zM493.775 36.266c0-37.694-30.559-68.266-68.265-68.266-37.702 0-68.267 30.572-68.267 68.266s30.565 68.266 68.267 68.266c37.706 0 68.265-30.572 68.265-68.266z" horiz-adv-x="494" />
<glyph unicode="&#xe627;" d="M254.551 296.114l-140.939 33.821c-1.489 0.391-2.909 0.036-4.395 0.167-27.031 3.523-54.218-10.748-65.558-37.068l-38.526-88.978c-13.684-31.78 0.934-68.457 32.614-82.087 5.414-2.303 10.986-3.525 16.547-4.296v-117.997c0-17.471 14.219-31.675 31.727-31.675 17.504 0 31.713 14.203 31.713 31.675v150.964c0.723 1.406 1.653 2.626 2.272 4.099l38.51 89.049c2.025 4.714 3.236 9.522 4.077 14.367l78.347-18.829c15.658-3.748 31.438 5.904 35.195 21.612 3.781 15.649-5.895 31.46-21.584 35.178zM203.952 411.125c0-38.064-30.846-68.879-68.875-68.879-38.042 0-68.888 30.815-68.888 68.879s30.845 68.875 68.888 68.875c38.029 0 68.875-30.81 68.875-68.875zM455.447-14.142c0-9.714-7.875-17.599-17.572-17.599h-203.708c-9.688 0-17.585 7.884-17.585 17.599v206.781c0 9.683 7.897 17.57 17.585 17.57l203.708 0.037c9.696 0 17.572-7.893 17.572-17.608v-206.781z" horiz-adv-x="456" />
</font>
</defs>
</svg>
